<svg viewBox="0 0 128 128">

  <path transform="matrix(0.5,0,0,0.5,23.6,33.8)" fill="#1572b6"
    d="M 37.7 145.1 L 27.7 32.4 h 110.5 l -10.1 112.8 l -45.2 12.5 l -45.1 -12.5 z"></path>
  <path transform="matrix(0.5,0,0,0.5,31.1,33.7)" fill="#33a9dc"
    d="M 68.3 150.2 l 36.6 -10.1 l 8.6 -96.4 h -45.2 v 106.5 z"></path>
  <path transform="matrix(0.5,0,0,0.5,29.4,27.5)" fill="#ffffff"
    d="M 71.7 94.6 h 18.3 l 1.3 -14.2 H 71.7 V 66.6 h 34.7 l -0.3 3.7 l -3.4 38.1 h -30.9 V 94.6 z">
  </path>
  <path transform="matrix(0.5,0,0,0.5,18.6,41.1)" fill="#ebebeb"
    d="M 94.8 102.1 l -0.1 0 l -15.4 -4.2 l -1 -11 H 64.5 l 1.9 21.7 l 28.3 7.9 l 0.1 0 v -14.4 z">
  </path>
  <path transform="matrix(0.5,0,0,0.5,28.8,39.9)" fill="#ffffff"
    d="M 90 81.8 l -1.7 18.5 l -15.4 4.2 v 14.4 l 28.4 -7.9 l 0.2 -2.3 l 2.4 -26.9 H 90 z">
  </path>
  <path transform="matrix(0.5,0,0,0.5,17.9,27.5)" fill="#ebebeb"
    d="M 96.2 66.6 v 13.8 H 62.8 l -0.3 -3.1 l -0.6 -7 l -0.3 -3.7 h 34.6 z m 0 28 v 13.8 H 81 l -0.3 -3.1 l -0.6 -7 l -0.3 -3.7 h 16.4 z">
  </path>


  <path transform="matrix(0.5,0,0,0.5,29.2,35.4)" fill="#e44d26"
    d="M -39.4 104.2 L -49.4 -8 h 109.9 l -10 112.2 l -45 12.5 z"></path>
  <path transform="matrix(0.5,0,0,0.5,36.4,35.3)" fill="#f16529" d="M -9 107.3 l 36.4 -10.1 l 8.6 -95.9 H -9 z">
  </path>
  <path transform="matrix(0.5,0,0,0.5,23.7,35.2)" fill="#ebebeb"
    d="M 16.8 43.2 H -1.4 L -2.7 29.1 H 16.8 V 15.3 H -17.7 l 0.3 3.7 l 3.4 37.9 H 16.8 z m 0 35.7 l -0.1 0 l -15.3 -4.1 l -1 -11 H -13.4 l 1.9 21.6 l 28.2 7.8 l 0.1 0 z">
  </path>
  <path transform="matrix(0.5,0,0,0.5,34.7,35.2)" fill="#ffffff"
    d="M -5.6 43.2 v 13.8 h 16.9 l -1.6 17.8 l -15.3 4.1 v 14.3 l 28.2 -7.8 l 0.2 -2.3 l 3.2 -36.2 l 0.3 -3.7 h -3.7 z m 0 -27.9 v 13.8 h 33.2 l 0.3 -3.1 l 0.6 -7 l 0.3 -3.7 z">
  </path>


</svg>