<svg xmlns="http://www.w3.org/2000/svg" xmlns:xlink="http://www.w3.org/1999/xlink" width="1024" zoomAndPan="magnify"
    viewBox="0 0 768 767.999994" height="1024" preserveAspectRatio="xMidYMid meet" version="1">
    <path fill="#c291f2"
        d="M 505.3 343.8 C 507.3 315.2 517.9 288.3 536.1 265.8 C 547.8 270.8 560.3 275 573.4 278.4 C 567.4 299 564 320.9 563.2 343.8 Z M 638.4 436.9 L 638.4 493.5 C 621.9 488.1 606.6 469.4 595.6 441.3 C 609 438.9 623.3 437.4 638.4 436.9 Z M 602.7 487.7 C 582.4 480.9 563.8 469.7 548.3 454.8 C 557.7 451.2 567.9 448 578.7 445.3 C 585.2 462.3 593.3 476.7 602.7 487.7 Z M 580.5 363.5 L 638.4 363.5 L 638.4 419.7 C 621.8 420.3 605.6 422.1 590.1 425.1 C 584.6 406 581.3 384.9 580.5 363.5 Z M 638.4 287.5 L 638.4 343.8 L 580.5 343.8 C 581.3 322.4 584.6 301.2 590.1 282.2 C 605.7 285.2 621.9 287 638.4 287.5 Z M 548.3 252.4 C 563.8 237.5 582.4 226.3 602.7 219.6 C 593.3 230.6 585.2 245 578.7 262 C 567.9 259.3 557.7 256.1 548.3 252.4 Z M 595.6 265.9 C 606.6 237.8 621.9 219.1 638.4 213.7 L 638.4 270.3 C 623.3 269.8 609 268.4 595.6 265.9 Z M 573.4 428.9 C 560.4 432.2 547.8 436.5 536.1 441.5 C 517.9 419 507.3 392.1 505.3 363.5 L 563.2 363.5 C 564 386.3 567.4 408.3 573.4 428.9 Z M 791.4 363.4 C 789.4 392.1 778.8 419 760.7 441.5 C 748.9 436.5 736.4 432.2 723.4 428.9 C 729.4 408.3 732.8 386.3 733.5 363.4 L 791.4 363.4 Z M 658.4 270.3 L 658.4 213.7 C 674.8 219.1 690.2 237.8 701.1 265.9 C 687.8 268.4 673.4 269.8 658.4 270.3 Z M 718 262 C 711.6 245 703.4 230.6 694.1 219.6 C 714.4 226.3 732.9 237.5 748.4 252.4 C 739 256.1 728.9 259.3 718 262 Z M 716.3 343.8 L 658.4 343.8 L 658.4 287.5 C 674.9 287 691.1 285.2 706.6 282.2 C 712.2 301.2 715.5 322.4 716.3 343.8 Z M 733.5 343.8 C 732.8 320.9 729.4 299 723.4 278.4 C 736.4 275 748.9 270.8 760.7 265.8 C 778.8 288.3 789.4 315.2 791.4 343.8 L 733.5 343.8 Z M 658.4 419.7 L 658.4 363.4 L 716.3 363.4 C 715.5 384.9 712.2 406 706.6 425.1 C 691.1 422 674.9 420.3 658.4 419.7 Z M 748.4 454.8 C 732.9 469.7 714.4 480.9 694 487.7 C 703.4 476.7 711.6 462.3 718 445.3 C 728.9 448 739.1 451.2 748.4 454.8 Z M 701.1 441.3 C 690.2 469.4 674.8 488.1 658.4 493.5 L 658.4 436.9 C 673.4 437.4 687.7 438.9 701.1 441.3 Z M 648.4 195 C 559.7 195 487.5 266.2 487.5 353.6 C 487.5 441.1 559.7 512.3 648.4 512.3 C 737.1 512.3 809.3 441.1 809.3 353.6 C 809.3 266.2 737.1 195 648.4 195 Z M 648.4 195"
        fill-opacity="1" fill-rule="evenodd" />
</svg>